HIERARCHY
ROOT Hips
{
  OFFSET -331.093 83.8371 -317.828
  CHANNELS 6 Xposition Yposition Zposition Zrotation Xrotation Yrotation
  JOINT LeftUpLeg
  {
    OFFSET 8.64259 1.95398 -2.38835
    CHANNELS 3 Zrotation Xrotation Yrotation
    JOINT LeftLeg
    {
      OFFSET 43.7702 0 0
      CHANNELS 3 Zrotation Xrotation Yrotation
      JOINT LeftFoot
      {
        OFFSET 40.6238 0 0
        CHANNELS 3 Zrotation Xrotation Yrotation
        JOINT LeftToeBase
        {
          OFFSET 12.7242 0 0
          CHANNELS 3 Zrotation Xrotation Yrotation
          End Site
          {
            OFFSET 0 0 0
          }
        }
      }
    }
  }
  JOINT RightUpLeg
  {
    OFFSET -8.2249 1.95398 -2.59336
    CHANNELS 3 Zrotation Xrotation Yrotation
    JOINT RightLeg
    {
      OFFSET 43.5653 0 0
      CHANNELS 3 Zrotation Xrotation Yrotation
      JOINT RightFoot
      {
        OFFSET 40.6238 0 0
        CHANNELS 3 Zrotation Xrotation Yrotation
        JOINT RightToeBase
        {
          OFFSET 12.7242 0 0
          CHANNELS 3 Zrotation Xrotation Yrotation
          End Site
          {
            OFFSET 0 0 0
          }
        }
      }
    }
  }
  JOINT Spine
  {
    OFFSET 0.165834 0.87714 6.61349
    CHANNELS 3 Zrotation Xrotation Yrotation
    JOINT Spine1
    {
      OFFSET 7.38963 1.71661e-005 0
      CHANNELS 3 Zrotation Xrotation Yrotation
      JOINT Spine2
      {
        OFFSET 11.9445 1.14441e-005 0
        CHANNELS 3 Zrotation Xrotation Yrotation
        JOINT Spine3
        {
          OFFSET 14.7254 4.19617e-005 0
          CHANNELS 3 Zrotation Xrotation Yrotation
          JOINT Spine4
          {
            OFFSET 10.9679 0 0
            CHANNELS 3 Zrotation Xrotation Yrotation
            JOINT RightShoulder
            {
              OFFSET 2.46616 -1.6653 3.69651
              CHANNELS 3 Zrotation Xrotation Yrotation
              JOINT RightArm
              {
                OFFSET 13.0012 0 0
                CHANNELS 3 Zrotation Xrotation Yrotation
                JOINT RightForeArm
                {
                  OFFSET 28.7848 1.62311e-005 0
                  CHANNELS 3 Zrotation Xrotation Yrotation
                  JOINT RightHand
                  {
                    OFFSET 26.5688 1.62095e-005 0
                    CHANNELS 3 Zrotation Xrotation Yrotation
                    End Site
                    {
                      OFFSET 0 0 0
                    }
                  }
                }
              }
            }
            JOINT LeftShoulder
            {
              OFFSET 2.38034 -1.29275 -3.7523
              CHANNELS 3 Zrotation Xrotation Yrotation
              JOINT LeftArm
              {
                OFFSET 16.3182 6.07031e-005 0
                CHANNELS 3 Zrotation Xrotation Yrotation
                JOINT LeftForeArm
                {
                  OFFSET 27.0901 0 0
                  CHANNELS 3 Zrotation Xrotation Yrotation
                  JOINT LeftHand
                  {
                    OFFSET 24.5451 1.51738e-005 0
                    CHANNELS 3 Zrotation Xrotation Yrotation
                    End Site
                    {
                      OFFSET 0 0 0
                    }
                  }
                }
              }
            }
            JOINT Neck
            {
              OFFSET 5.0226 -0.0266342 0
              CHANNELS 3 Zrotation Xrotation Yrotation
              JOINT Head
              {
                OFFSET 6.69364 2.86102e-005 0
                CHANNELS 3 Zrotation Xrotation Yrotation
                End Site
                {
                  OFFSET 0 0 0
                }
              }
            }
          }
        }
      }
    }
  }
}
MOTION
Frames:	9
Frame Time:	0.0416667
-61.5803 99.0651 35.6752 2.11748 -89.6383 1.41948 -174.798 5.28463 91.5892 -7.94446 2.518 -0.69575 59.8795 1.70582 4.3591 28.5372 -0.530955 -1.66135 171.256 4.69872 88.602 -11.945 -6.52304 -2.06278 64.928 -2.01941 -1.13975 29.1027 -0.498413 -4.07189 -0.0643118 7.0231 -90.1152 12.8274 -0.182827 -0.208393 1.15649 -0.191822 -0.200144 -21.3786 -0.111744 -0.253699 -1.36592 -0.111744 -0.253703 91.085 -40.3406 -101.064 32.9937 -16.2413 0.614261 -5.45473 -9.96268 -38.1903 -7.26864 -0.580602 3.93887 -98.3533 -50.4255 67.0701 -21.8203 14.2821 -0.248773 5.54172 17.5176 -33.3502 13.2907 1.27301 5.51924 0.69256 0.684878 5.60194 -11.0865 -0.387873 3.1288 
-61.5418 99.1466 35.7334 -5.98856 -89.6906 -6.73298 -174.855 5.27783 91.5557 -8.01803 1.57809 -0.565531 59.4889 0.945348 3.49241 29.2975 -0.230876 -2.78601 170.955 5.12687 88.4958 -12.599 -5.60993 -1.72528 64.4456 -1.8159 -1.02968 30.0426 -0.380966 -2.76591 -0.0553671 7.03657 -90.1258 12.8005 -0.170113 -0.231195 1.12956 -0.180123 -0.223493 -21.4055 -0.0927681 -0.271626 -1.39282 -0.0927684 -0.271642 91.1794 -40.0492 -100.979 33.0825 -16.2686 0.515167 -4.87207 -10.4859 -37.7332 -8.37564 -0.665686 3.95657 -98.565 -50.4945 66.7886 -21.9044 14.1102 -0.392191 5.54011 17.5794 -33.1651 12.8383 1.19414 5.23023 1.16179 2.10766 5.91653 -9.19007 1.0466 2.47332 
-61.5016 99.1356 35.7934 -17.7418 -89.6506 -18.542 -174.93 5.50676 91.4713 -8.506 1.43821 -0.507766 59.5262 0.798913 3.48367 29.4775 -0.181243 -3.13821 170.895 4.97752 88.401 -12.3576 -5.90643 -1.72729 64.711 -2.01991 -1.1388 29.5485 -0.368488 -2.8361 -0.0413017 7.03115 -90.1084 12.8114 -0.133832 -0.200595 1.14046 -0.14253 -0.194511 -21.3946 -0.0673607 -0.231542 -1.38194 -0.0673599 -0.231544 91.1027 -40.1883 -101.074 33.0575 -16.2016 0.6506 -5.05841 -10.263 -37.8139 -8.28066 -0.657722 3.94738 -98.4076 -50.2885 66.9449 -21.8485 14.3761 -0.690571 5.30138 17.5546 -32.8435 13.0218 1.19689 5.13283 1.67306 1.79415 5.90593 -9.22669 0.738456 2.00027 
-61.4685 99.104 35.8531 -21.0927 -89.6126 -21.8413 -174.738 5.30468 91.5487 -8.25015 1.15085 -0.672403 59.9798 1.00019 2.90506 29.0534 -0.256674 -2.10034 170.88 4.95514 88.412 -12.3381 -5.95637 -1.70548 64.9167 -2.09166 -1.17787 29.1712 -0.353368 -2.84871 -0.0401229 7.01865 -90.1188 12.8364 -0.136517 -0.221129 1.16545 -0.14612 -0.214908 -21.3696 -0.0637535 -0.251934 -1.35692 -0.0637526 -0.251937 91.1774 -40.1586 -100.953 32.9832 -16.3034 0.637055 -4.87508 -10.1375 -37.8665 -8.54753 -0.675387 3.91833 -98.4104 -50.3176 66.9506 -21.6505 14.6638 -0.719888 5.0966 17.247 -32.8702 13.1845 1.21487 5.16507 1.69568 1.82203 6.03414 -9.04887 0.763503 1.74897 
-61.4647 99.1249 35.9108 -19.6912 -89.5953 -20.4134 -174.653 5.63114 91.6189 -8.86871 1.63817 -0.776614 60.1499 1.1818 3.50803 28.5406 -0.660339 -2.29402 170.808 4.99534 88.388 -12.4841 -6.2207 -1.62845 64.7709 -2.08534 -1.17342 29.7073 -0.46839 -3.57881 -0.0456544 6.99915 -90.1246 12.8754 -0.150349 -0.231078 1.20442 -0.160372 -0.224247 -21.3306 -0.0739487 -0.265581 -1.31794 -0.0739434 -0.265578 91.2091 -40.152 -100.901 33.1225 -16.2529 0.750325 -5.1045 -10.2786 -37.9991 -8.29169 -0.671873 4.10794 -98.516 -50.4285 66.8361 -21.5804 14.6642 -0.67085 5.0544 17.2534 -32.7851 13.4074 1.2583 5.34018 1.71142 1.88857 5.83458 -9.28354 0.829944 2.1562 
-61.4219 99.1005 35.9647 -2.34751 -89.5924 -2.95407 -174.627 5.6963 91.728 -8.97066 1.6277 -0.765484 60.1318 0.97779 3.2176 29.121 -0.271772 -2.40033 170.954 4.95866 88.5307 -12.4613 -5.77571 -1.69696 64.974 -2.2656 -1.26941 29.3813 -0.373046 -2.93814 -0.0544843 7.00131 -90.1509 12.871 -0.180457 -0.27991 1.19999 -0.192597 -0.271701 -21.335 -0.08799 -0.321205 -1.3223 -0.0879867 -0.321199 91.2444 -39.9585 -100.891 33.2397 -16.2051 0.745417 -5.03347 -10.161 -38.0045 -8.49285 -0.667359 3.85214 -98.8129 -50.7115 66.5073 -21.2047 14.6704 -0.670048 5.19421 17.3375 -32.9757 13.0498 1.20317 5.16291 1.93351 1.96171 6.27593 -9.56664 0.835865 1.86045 
-61.39 99.0879 35.9788 26.118 -89.5608 25.5954 -174.557 5.6889 91.7632 -8.99785 1.59978 -0.811767 60.5853 1.39185 3.33038 28.4131 -0.816746 -2.61751 170.956 4.97171 88.5882 -12.6116 -5.60121 -1.66998 64.941 -2.24003 -1.25662 29.6406 -0.380165 -2.90212 -0.0764434 7.01703 -90.1595 12.8394 -0.228112 -0.291419 1.16847 -0.240718 -0.281098 -21.3665 -0.129989 -0.346507 -1.35385 -0.129985 -0.346506 91.1564 -39.9605 -101.043 33.1612 -16.2769 0.596311 -4.92383 -10.321 -37.8549 -8.72223 -0.687278 3.88625 -98.8898 -50.7055 66.3945 -21.194 14.7203 -0.734314 5.26649 17.4161 -32.9782 13.2185 1.20921 5.10277 1.75915 1.88928 6.04859 -9.40992 0.793136 2.14763 
-61.3535 99.1017 36.0935 21.6386 -89.5466 21.055 -174.651 5.6942 91.7141 -9.06668 1.53192 -0.719931 60.3083 1.02998 3.14882 29.0467 -0.43699 -2.9255 170.98 4.90769 88.5359 -12.5177 -5.58489 -1.74068 64.8772 -2.23922 -1.25498 29.7294 -0.370525 -2.79738 -0.078255 7.03024 -90.141 12.8131 -0.222821 -0.255131 1.14214 -0.233838 -0.245098 -21.3929 -0.135846 -0.310306 -1.38023 -0.135844 -0.310312 91.2501 -39.8868 -100.901 33.308 -16.5677 0.408401 -5.1579 -10.6101 -37.7831 -9.13719 -0.705059 3.67562 -98.6396 -50.5428 66.6976 -21.3494 14.7829 -0.907666 5.15779 17.3042 -32.9148 13.4354 1.20568 4.94639 1.31094 1.81646 5.91306 -9.3729 0.763614 2.1884 
-61.3222 99.0935 36.1908 6.16562 -89.5331 5.54368 -174.638 5.56957 91.5963 -8.92408 1.46584 -0.766367 60.5927 1.44611 3.54608 28.3019 -0.918176 -2.73162 170.969 4.94158 88.4832 -12.6993 -6.00906 -1.77438 65.0769 -2.33367 -1.30622 29.8207 -0.419111 -3.1486 -0.0749624 7.04653 -90.125 12.7806 -0.20861 -0.22495 1.10963 -0.218307 -0.215549 -21.4254 -0.131355 -0.27724 -1.41279 -0.131364 -0.277252 91.1713 -39.9664 -101.015 33.1238 -16.687 0.315186 -5.09789 -10.4312 -37.8096 -8.89281 -0.69017 3.72684 -98.8035 -50.6738 66.5075 -21.2756 14.7586 -0.761776 5.09194 16.9936 -33.0584 13.547 1.23172 5.06545 0.450372 1.74757 6.26839 -10.0918 0.717394 1.62177 
